<svg width="24" height="24" viewBox="0 0 24 24" fill="none" xmlns="http://www.w3.org/2000/svg">
<g clip-path="url(#clip0_1325_4251)">
<path d="M10.97 2H8.97C3.97 2 1.97 4 1.97 9V15C1.97 20 3.97 22 8.97 22H14.97C19.97 22 21.97 20 21.97 15V13" stroke="white" stroke-width="1.5" stroke-linecap="round" stroke-linejoin="round"/>
<path d="M21.88 3.56022C20.65 6.63022 17.56 10.8102 14.98 12.8802L13.4 14.1402C13.2 14.2902 13 14.4102 12.77 14.5002C12.77 14.3502 12.76 14.2002 12.74 14.0402C12.65 13.3702 12.35 12.7402 11.81 12.2102C11.26 11.6602 10.6 11.3502 9.92 11.2602C9.76 11.2502 9.6 11.2402 9.44 11.2502C9.53 11.0002 9.66 10.7702 9.83 10.5802L11.09 9.00022C13.16 6.42022 17.35 3.31022 20.41 2.08022C20.88 1.90022 21.34 2.04022 21.63 2.33022C21.93 2.63022 22.07 3.09022 21.88 3.56022Z" stroke="white" stroke-width="1.5" stroke-linecap="round" stroke-linejoin="round"/>
<path d="M12.78 14.4905C12.78 15.3705 12.44 16.2105 11.81 16.8505C11.32 17.3405 10.66 17.6805 9.87 17.7805L7.9 17.9905C6.83 18.1105 5.91 17.2005 6.03 16.1105L6.24 14.1405C6.43 12.3905 7.89 11.2705 9.45 11.2405C9.61 11.2305 9.77 11.2405 9.93 11.2505C10.61 11.3405 11.27 11.6505 11.82 12.2005C12.36 12.7405 12.66 13.3605 12.75 14.0305C12.77 14.1905 12.78 14.3505 12.78 14.4905Z" stroke="white" stroke-width="1.5" stroke-linecap="round" stroke-linejoin="round"/>
<path d="M15.82 11.9804C15.82 9.89043 14.13 8.19043 12.03 8.19043" stroke="white" stroke-width="1.5" stroke-linecap="round" stroke-linejoin="round"/>
</g>
<defs>
<clipPath id="clip0_1325_4251">
<rect width="24" height="24" fill="white"/>
</clipPath>
</defs>
</svg>
